# This file uses centimeters as units for non-parametric coordinates.

mtllib OldWoodStairs_Steps.mtl
g default
v 2.574862 2.589557 0.002395
v 2.574862 2.540875 0.002395
v 2.572083 2.540875 1.034586
v 2.572083 2.589557 1.034586
v 2.889961 2.540875 0.003244
v 2.889961 2.589557 0.003244
v 2.887182 2.589557 1.035435
v 2.887182 2.540875 1.035435
v 2.570618 2.377486 1.034582
v 2.570618 2.328804 1.034582
v 2.573398 2.328804 0.002391
v 2.573398 2.377486 0.002391
v 2.255519 2.328804 1.033734
v 2.255519 2.377486 1.033734
v 2.258298 2.377486 0.001543
v 2.258298 2.328804 0.001543
v 1.941046 2.178167 0.000689
v 1.941046 2.129486 0.000689
v 1.938267 2.129486 1.032880
v 1.938267 2.178167 1.032880
v 2.256146 2.129486 0.001537
v 2.256146 2.178167 0.001537
v 2.253366 2.178167 1.033728
v 2.253366 2.129486 1.033728
v 1.939666 1.976729 1.032884
v 1.939666 1.928047 1.032884
v 1.942445 1.928047 0.000693
v 1.942445 1.976729 0.000693
v 1.624567 1.928047 1.032035
v 1.624567 1.976729 1.032035
v 1.627346 1.976729 -0.000156
v 1.627346 1.928047 -0.000156
v 1.315562 1.786077 -0.000995
v 1.315562 1.737396 -0.000995
v 1.312783 1.737396 1.031196
v 1.312783 1.786077 1.031196
v 1.630661 1.737396 -0.000147
v 1.630661 1.786077 -0.000147
v 1.627882 1.786077 1.032044
v 1.627882 1.737396 1.032044
v 1.312782 1.599317 1.031196
v 1.312782 1.550635 1.031196
v 1.315561 1.550635 -0.000995
v 1.315561 1.599317 -0.000995
v 0.997682 1.550635 1.030347
v 0.997682 1.591536 1.030347
v 1.000461 1.599317 -0.001844
v 1.000461 1.550635 -0.001844
v 0.998991 1.593143 0.544057
v 1.313834 1.608494 0.640232
v 0.999262 1.556079 0.443445
v 1.202817 1.599317 -0.001299
v 1.142303 1.599317 -0.001462
v 1.163807 1.599317 0.103077
v 1.172560 1.588275 -0.001380
v 0.000000 1.224372 1.255261
v 0.000000 1.175690 1.255261
v 1.032195 1.175690 1.255261
v 1.032195 1.224372 1.255261
v 0.000000 1.175690 0.940161
v 0.000000 1.224372 0.940161
v 1.032195 1.224372 0.940161
v 1.032195 1.175690 0.940161
v 1.032195 1.012301 1.256726
v 1.032195 0.963620 1.256726
v 0.000000 0.963620 1.256726
v 0.000000 1.012301 1.256726
v 1.032195 0.963620 1.571826
v 1.032195 1.012301 1.571826
v 0.000000 1.012301 1.571826
v 0.000000 0.963620 1.571826
v 0.000000 0.812982 1.889079
v 0.000000 0.764301 1.889079
v 1.032195 0.764301 1.889079
v 1.032195 0.812982 1.889079
v 0.000000 0.764301 1.573978
v 0.000000 0.812982 1.573978
v 1.032195 0.812982 1.573978
v 1.032195 0.764301 1.573978
v 1.032195 0.611544 1.887680
v 1.032195 0.562862 1.887680
v 0.000000 0.562862 1.887680
v 0.000000 0.611544 1.887680
v 1.032195 0.562862 2.202780
v 1.032195 0.611544 2.202780
v 0.000000 0.611544 2.202780
v 0.000000 0.562862 2.202780
v 0.000000 0.420893 2.514565
v 0.000000 0.372211 2.514565
v 1.032195 0.372211 2.514565
v 1.032195 0.420893 2.514565
v 0.000000 0.372211 2.199465
v 0.000000 0.420893 2.199465
v 1.032195 0.420893 2.199465
v 1.032195 0.372211 2.199465
v 1.032195 0.234132 2.514566
v 1.032195 0.185450 2.514566
v 0.000000 0.185450 2.514566
v 0.000000 0.234132 2.514566
v 1.032195 0.185450 2.829667
v 1.032195 0.226351 2.829667
v 0.000000 0.234132 2.829667
v 0.000000 0.185450 2.829667
v 0.545902 0.227958 2.829667
v 0.641230 0.243309 2.514566
v 0.445291 0.190894 2.829667
v 0.000000 0.234132 2.627310
v 0.000000 0.234132 2.687825
v 0.104480 0.234132 2.666039
v 0.000000 0.223090 2.657568
vt 0.006026 0.913298
vt 0.006026 0.407328
vt 1.002041 0.407328
vt 1.002041 0.913298
vt 0.001581 0.985111
vt 0.001581 0.632966
vt 0.997597 0.632976
vt 0.997597 0.985119
vt 0.002180 0.003589
vt 0.998196 0.003590
vt 1.000044 0.987990
vt 0.004029 0.987989
vt 0.016146 0.571119
vt 0.016146 0.118853
vt 0.986117 0.118854
vt 0.986117 0.571118
vt 0.002742 0.002744
vt 0.998757 0.002744
vt 0.998758 0.997000
vt 0.002742 0.997000
vt 0.960066 0.008102
vt 0.960066 0.533887
vt 0.027090 0.533889
vt 0.027090 0.008105
vt 0.006026 0.913298
vt 0.006026 0.407328
vt 1.002041 0.407328
vt 1.002041 0.913298
vt 0.001581 0.985111
vt 0.001581 0.632966
vt 0.997597 0.632976
vt 0.997597 0.985119
vt 0.002180 0.003589
vt 0.998196 0.003590
vt 1.000044 0.987990
vt 0.004029 0.987989
vt 0.016146 0.571119
vt 0.016146 0.118853
vt 0.986117 0.118854
vt 0.986117 0.571118
vt 0.002742 0.002744
vt 0.998757 0.002744
vt 0.998758 0.997000
vt 0.002742 0.997000
vt 0.960066 0.008102
vt 0.960066 0.533887
vt 0.027090 0.533889
vt 0.027090 0.008105
vt 0.006026 0.913298
vt 0.006026 0.407328
vt 1.002041 0.407328
vt 1.002041 0.913298
vt 0.001581 0.985111
vt 0.001581 0.632966
vt 0.997597 0.632976
vt 0.997597 0.985119
vt 0.002180 0.003589
vt 0.998196 0.003590
vt 1.000044 0.987990
vt 0.004029 0.987989
vt 0.016146 0.571119
vt 0.016146 0.118853
vt 0.986117 0.118854
vt 0.986117 0.571118
vt 0.002742 0.002744
vt 0.998757 0.002744
vt 0.998758 0.997000
vt 0.002742 0.997000
vt 0.960066 0.008102
vt 0.960066 0.533887
vt 0.027090 0.533889
vt 0.027090 0.008105
vt 0.006026 0.913298
vt 0.006026 0.407328
vt 1.002041 0.407328
vt 1.002041 0.913298
vt 0.001581 0.985111
vt 0.001581 0.632966
vt 0.997597 0.632976
vt 0.997597 0.985119
vt 0.002180 0.003589
vt 0.998196 0.003590
vt 1.000044 0.987990
vt 0.004029 0.987989
vt 0.016146 0.571119
vt 0.016146 0.118853
vt 0.986117 0.118854
vt 0.986117 0.571118
vt 0.002742 0.002744
vt 0.998757 0.002744
vt 0.998758 0.997000
vt 0.002742 0.997000
vt 0.960066 0.008102
vt 0.960066 0.533887
vt 0.027090 0.533889
vt 0.027090 0.008105
vt 0.006026 0.913298
vt 0.006026 0.407328
vt 1.002041 0.407328
vt 1.002041 0.913298
vt 0.001581 0.985111
vt 0.001581 0.632966
vt 0.997597 0.632976
vt 0.997597 0.985119
vt 0.002180 0.003589
vt 0.998196 0.003590
vt 1.000044 0.987990
vt 0.004029 0.987989
vt 0.016146 0.571119
vt 0.016146 0.118853
vt 0.986117 0.118854
vt 0.986117 0.571118
vt 0.002742 0.002744
vt 0.998757 0.002744
vt 0.998758 0.997000
vt 0.002742 0.997000
vt 0.960066 0.008102
vt 0.960066 0.533887
vt 0.027090 0.533889
vt 0.027090 0.008105
vt 0.006026 0.913298
vt 0.006026 0.407328
vt 1.002041 0.407328
vt 1.002041 0.913298
vt 0.383287 0.913298
vt 0.567914 0.985115
vt 0.470829 0.632971
vt 0.997597 0.632976
vt 0.997597 0.985119
vt 0.002180 0.003589
vt 0.568513 0.003589
vt 0.998196 0.003590
vt 1.000044 0.987990
vt 0.004029 0.987989
vt 0.070251 0.571118
vt 0.070251 0.118853
vt 1.040222 0.118854
vt 1.040222 0.571118
vt 0.002742 0.545781
vt 0.103560 0.519049
vt 0.002742 0.641254
vt 0.905961 0.008102
vt 0.905961 0.533887
vt 0.485983 0.533888
vt 0.396394 0.533888
vt 0.306805 0.533888
vt -0.027015 0.533889
vt -0.027015 0.008105
vt 0.529510 0.002744
vt 0.998757 0.002744
vt 0.998758 0.997000
vt 0.621496 0.997000
vt 0.001581 0.985111
vt 0.001581 0.632966
vt 0.002742 0.997000
vt 0.002742 0.002744
vt 0.002742 0.450308
vt 0.006026 0.913298
vt 0.006026 0.407328
vt 1.002041 0.407328
vt 1.002041 0.913298
vt 0.001581 0.985111
vt 0.001581 0.632966
vt 0.997597 0.632976
vt 0.997597 0.985119
vt 0.002180 0.003589
vt 0.998196 0.003590
vt 1.000044 0.987990
vt 0.004029 0.987989
vt 0.016146 0.571119
vt 0.016146 0.118853
vt 0.986117 0.118854
vt 0.986117 0.571118
vt 0.002742 0.002744
vt 0.998757 0.002744
vt 0.998758 0.997000
vt 0.002742 0.997000
vt 0.960066 0.008102
vt 0.960066 0.533887
vt 0.027090 0.533889
vt 0.027090 0.008105
vt 0.006026 0.913298
vt 0.006026 0.407328
vt 1.002041 0.407328
vt 1.002041 0.913298
vt 0.001581 0.985111
vt 0.001581 0.632966
vt 0.997597 0.632976
vt 0.997597 0.985119
vt 0.002180 0.003589
vt 0.998196 0.003590
vt 1.000044 0.987990
vt 0.004029 0.987989
vt 0.016146 0.571119
vt 0.016146 0.118853
vt 0.986117 0.118854
vt 0.986117 0.571118
vt 0.002742 0.002744
vt 0.998757 0.002744
vt 0.998758 0.997000
vt 0.002742 0.997000
vt 0.960066 0.008102
vt 0.960066 0.533887
vt 0.027090 0.533889
vt 0.027090 0.008105
vt 0.006026 0.913298
vt 0.006026 0.407328
vt 1.002041 0.407328
vt 1.002041 0.913298
vt 0.001581 0.985111
vt 0.001581 0.632966
vt 0.997597 0.632976
vt 0.997597 0.985119
vt 0.002180 0.003589
vt 0.998196 0.003590
vt 1.000044 0.987990
vt 0.004029 0.987989
vt 0.016146 0.571119
vt 0.016146 0.118853
vt 0.986117 0.118854
vt 0.986117 0.571118
vt 0.002742 0.002744
vt 0.998757 0.002744
vt 0.998758 0.997000
vt 0.002742 0.997000
vt 0.960066 0.008102
vt 0.960066 0.533887
vt 0.027090 0.533889
vt 0.027090 0.008105
vt 0.006026 0.913298
vt 0.006026 0.407328
vt 1.002041 0.407328
vt 1.002041 0.913298
vt 0.001581 0.985111
vt 0.001581 0.632966
vt 0.997597 0.632976
vt 0.997597 0.985119
vt 0.002180 0.003589
vt 0.998196 0.003590
vt 1.000044 0.987990
vt 0.004029 0.987989
vt 0.016146 0.571119
vt 0.016146 0.118853
vt 0.986117 0.118854
vt 0.986117 0.571118
vt 0.002742 0.002744
vt 0.998757 0.002744
vt 0.998758 0.997000
vt 0.002742 0.997000
vt 0.960066 0.008102
vt 0.960066 0.533887
vt 0.027090 0.533889
vt 0.027090 0.008105
vt 0.006026 0.913298
vt 0.006026 0.407328
vt 1.002041 0.407328
vt 1.002041 0.913298
vt 0.001581 0.985111
vt 0.001581 0.632966
vt 0.997597 0.632976
vt 0.997597 0.985119
vt 0.002180 0.003589
vt 0.998196 0.003590
vt 1.000044 0.987990
vt 0.004029 0.987989
vt 0.016146 0.571119
vt 0.016146 0.118853
vt 0.986117 0.118854
vt 0.986117 0.571118
vt 0.002742 0.002744
vt 0.998757 0.002744
vt 0.998758 0.997000
vt 0.002742 0.997000
vt 0.960066 0.008102
vt 0.960066 0.533887
vt 0.027090 0.533889
vt 0.027090 0.008105
vt 0.006026 0.913298
vt 0.006026 0.407328
vt 1.002041 0.407328
vt 1.002041 0.913298
vt 0.383287 0.913298
vt 0.567914 0.985115
vt 0.470829 0.632971
vt 0.997597 0.632976
vt 0.997597 0.985119
vt 0.002180 0.003589
vt 0.568513 0.003589
vt 0.998196 0.003590
vt 1.000044 0.987990
vt 0.004029 0.987989
vt 0.070251 0.571118
vt 0.070251 0.118853
vt 1.040222 0.118854
vt 1.040222 0.571118
vt 0.002742 0.545781
vt 0.103560 0.519049
vt 0.002742 0.641254
vt 0.905961 0.008102
vt 0.905961 0.533887
vt 0.485983 0.533888
vt 0.396394 0.533888
vt 0.306805 0.533888
vt -0.027015 0.533889
vt -0.027015 0.008105
vt 0.529510 0.002744
vt 0.998757 0.002744
vt 0.998758 0.997000
vt 0.621496 0.997000
vt 0.001581 0.985111
vt 0.001581 0.632966
vt 0.002742 0.997000
vt 0.002742 0.002744
vt 0.002742 0.450308
vn -0.999996 0.000000 -0.002692
vn -0.999996 0.000000 -0.002692
vn -0.999996 0.000000 -0.002692
vn -0.999996 0.000000 -0.002692
vn 0.999996 0.000000 0.002692
vn 0.999996 0.000000 0.002692
vn 0.999996 0.000000 0.002692
vn 0.999996 0.000000 0.002692
vn 0.000000 -1.000000 0.000000
vn 0.000000 -1.000000 0.000000
vn 0.000000 -1.000000 0.000000
vn 0.000000 -1.000000 0.000000
vn 0.002692 0.000000 -0.999996
vn 0.002692 0.000000 -0.999996
vn 0.002692 0.000000 -0.999996
vn 0.002692 0.000000 -0.999996
vn 0.000000 1.000000 0.000000
vn 0.000000 1.000000 0.000000
vn 0.000000 1.000000 0.000000
vn 0.000000 1.000000 0.000000
vn -0.002693 0.000000 0.999996
vn -0.002693 0.000000 0.999996
vn -0.002693 0.000000 0.999996
vn -0.002693 0.000000 0.999996
vn 0.999996 0.000000 0.002693
vn 0.999996 0.000000 0.002693
vn 0.999996 0.000000 0.002693
vn 0.999996 0.000000 0.002693
vn -0.999996 0.000000 -0.002692
vn -0.999996 0.000000 -0.002692
vn -0.999996 0.000000 -0.002692
vn -0.999996 0.000000 -0.002692
vn 0.000000 -1.000000 0.000000
vn 0.000000 -1.000000 0.000000
vn 0.000000 -1.000000 0.000000
vn 0.000000 -1.000000 0.000000
vn -0.002693 0.000000 0.999996
vn -0.002693 0.000000 0.999996
vn -0.002693 0.000000 0.999996
vn -0.002693 0.000000 0.999996
vn 0.000000 1.000000 0.000000
vn 0.000000 1.000000 0.000000
vn 0.000000 1.000000 0.000000
vn 0.000000 1.000000 0.000000
vn 0.002692 0.000000 -0.999996
vn 0.002692 0.000000 -0.999996
vn 0.002692 0.000000 -0.999996
vn 0.002692 0.000000 -0.999996
vn -0.999996 0.000000 -0.002692
vn -0.999996 0.000000 -0.002692
vn -0.999996 0.000000 -0.002692
vn -0.999996 0.000000 -0.002692
vn 0.999996 0.000000 0.002693
vn 0.999996 0.000000 0.002693
vn 0.999996 0.000000 0.002693
vn 0.999996 0.000000 0.002693
vn 0.000000 -1.000000 0.000000
vn 0.000000 -1.000000 0.000000
vn 0.000000 -1.000000 0.000000
vn 0.000000 -1.000000 0.000000
vn 0.002693 0.000000 -0.999996
vn 0.002693 0.000000 -0.999996
vn 0.002693 0.000000 -0.999996
vn 0.002693 0.000000 -0.999996
vn 0.000000 1.000000 0.000000
vn 0.000000 1.000000 0.000000
vn 0.000000 1.000000 0.000000
vn 0.000000 1.000000 0.000000
vn -0.002692 0.000000 0.999996
vn -0.002692 0.000000 0.999996
vn -0.002692 0.000000 0.999996
vn -0.002692 0.000000 0.999996
vn 0.999996 0.000000 0.002692
vn 0.999996 0.000000 0.002692
vn 0.999996 0.000000 0.002692
vn 0.999996 0.000000 0.002692
vn -0.999996 0.000000 -0.002692
vn -0.999996 0.000000 -0.002692
vn -0.999996 0.000000 -0.002692
vn -0.999996 0.000000 -0.002692
vn 0.000000 -1.000000 0.000000
vn 0.000000 -1.000000 0.000000
vn 0.000000 -1.000000 0.000000
vn 0.000000 -1.000000 0.000000
vn -0.002693 0.000000 0.999996
vn -0.002693 0.000000 0.999996
vn -0.002693 0.000000 0.999996
vn -0.002693 0.000000 0.999996
vn 0.000000 1.000000 0.000000
vn 0.000000 1.000000 0.000000
vn 0.000000 1.000000 0.000000
vn 0.000000 1.000000 0.000000
vn 0.002693 0.000000 -0.999996
vn 0.002693 0.000000 -0.999996
vn 0.002693 0.000000 -0.999996
vn 0.002693 0.000000 -0.999996
vn -0.999996 0.000000 -0.002693
vn -0.999996 0.000000 -0.002693
vn -0.999996 0.000000 -0.002693
vn -0.999996 0.000000 -0.002693
vn 0.999996 0.000000 0.002692
vn 0.999996 0.000000 0.002692
vn 0.999996 0.000000 0.002692
vn 0.999996 0.000000 0.002692
vn 0.000000 -1.000000 0.000000
vn 0.000000 -1.000000 0.000000
vn 0.000000 -1.000000 0.000000
vn 0.000000 -1.000000 0.000000
vn 0.002692 0.000000 -0.999996
vn 0.002692 0.000000 -0.999996
vn 0.002692 0.000000 -0.999996
vn 0.002692 0.000000 -0.999996
vn 0.000000 1.000000 -0.000000
vn 0.000000 1.000000 -0.000000
vn 0.000000 1.000000 -0.000000
vn 0.000000 1.000000 -0.000000
vn -0.002693 0.000000 0.999996
vn -0.002693 0.000000 0.999996
vn -0.002693 0.000000 0.999996
vn -0.002693 0.000000 0.999996
vn 0.999996 0.000000 0.002692
vn 0.999996 0.000000 0.002692
vn 0.999996 0.000000 0.002692
vn 0.999996 0.000000 0.002692
vn 0.999996 0.000000 0.002692
vn -0.999996 0.000000 -0.002693
vn -0.999996 0.000000 -0.002693
vn -0.999996 0.000000 -0.002693
vn -0.999996 0.000000 -0.002693
vn -0.008637 -0.999963 -0.000023
vn -0.008637 -0.999963 -0.000023
vn -0.008637 -0.999963 -0.000023
vn -0.008637 -0.999963 -0.000023
vn -0.008637 -0.999963 -0.000023
vn -0.002692 0.000000 0.999996
vn -0.002692 0.000000 0.999996
vn -0.002692 0.000000 0.999996
vn -0.002692 0.000000 0.999996
vn -0.339743 0.931907 -0.126977
vn -0.339743 0.931907 -0.126977
vn -0.339743 0.931907 -0.126977
vn 0.002693 0.000000 -0.999996
vn 0.002693 0.000000 -0.999996
vn 0.002693 0.000000 -0.999996
vn 0.002693 0.000000 -0.999996
vn 0.002693 0.000000 -0.999996
vn 0.002693 0.000000 -0.999996
vn 0.002693 0.000000 -0.999996
vn -0.038567 0.999182 0.012179
vn -0.038567 0.999182 0.012179
vn -0.038567 0.999182 0.012179
vn -0.038567 0.999182 0.012179
vn -0.999996 0.000000 -0.002693
vn -0.999996 0.000000 -0.002693
vn -0.999996 0.000000 -0.002693
vn -0.999996 0.000000 -0.002693
vn -0.031541 0.999474 -0.007503
vn -0.031541 0.999474 -0.007503
vn -0.031541 0.999474 -0.007503
vn -0.031541 0.999474 -0.007503
vn -0.031541 0.999474 -0.007503
vn -0.006220 0.999934 0.009684
vn -0.006220 0.999934 0.009684
vn -0.006220 0.999934 0.009684
vn -0.006220 0.999934 0.009684
vn 0.342139 0.937010 -0.070379
vn 0.342139 0.937010 -0.070379
vn 0.342139 0.937010 -0.070379
vn 0.000000 0.000000 1.000000
vn 0.000000 0.000000 1.000000
vn 0.000000 0.000000 1.000000
vn 0.000000 0.000000 1.000000
vn 0.000000 0.000000 -1.000000
vn 0.000000 0.000000 -1.000000
vn 0.000000 0.000000 -1.000000
vn 0.000000 0.000000 -1.000000
vn 0.000000 -1.000000 0.000000
vn 0.000000 -1.000000 0.000000
vn 0.000000 -1.000000 0.000000
vn 0.000000 -1.000000 0.000000
vn -1.000000 0.000000 0.000000
vn -1.000000 0.000000 0.000000
vn -1.000000 0.000000 0.000000
vn -1.000000 0.000000 0.000000
vn 0.000000 1.000000 0.000000
vn 0.000000 1.000000 0.000000
vn 0.000000 1.000000 0.000000
vn 0.000000 1.000000 0.000000
vn 1.000000 0.000000 0.000000
vn 1.000000 0.000000 0.000000
vn 1.000000 0.000000 0.000000
vn 1.000000 0.000000 0.000000
vn 0.000000 0.000000 -1.000000
vn 0.000000 0.000000 -1.000000
vn 0.000000 0.000000 -1.000000
vn 0.000000 0.000000 -1.000000
vn 0.000000 0.000000 1.000000
vn 0.000000 0.000000 1.000000
vn 0.000000 0.000000 1.000000
vn 0.000000 0.000000 1.000000
vn 0.000000 -1.000000 0.000000
vn 0.000000 -1.000000 0.000000
vn 0.000000 -1.000000 0.000000
vn 0.000000 -1.000000 0.000000
vn 1.000000 0.000000 0.000000
vn 1.000000 0.000000 0.000000
vn 1.000000 0.000000 0.000000
vn 1.000000 0.000000 0.000000
vn 0.000000 1.000000 0.000000
vn 0.000000 1.000000 0.000000
vn 0.000000 1.000000 0.000000
vn 0.000000 1.000000 0.000000
vn -1.000000 0.000000 0.000000
vn -1.000000 0.000000 0.000000
vn -1.000000 0.000000 0.000000
vn -1.000000 0.000000 0.000000
vn 0.000000 0.000000 1.000000
vn 0.000000 0.000000 1.000000
vn 0.000000 0.000000 1.000000
vn 0.000000 0.000000 1.000000
vn 0.000000 0.000000 -1.000000
vn 0.000000 0.000000 -1.000000
vn 0.000000 0.000000 -1.000000
vn 0.000000 0.000000 -1.000000
vn 0.000000 -1.000000 0.000000
vn 0.000000 -1.000000 0.000000
vn 0.000000 -1.000000 0.000000
vn 0.000000 -1.000000 0.000000
vn -1.000000 0.000000 0.000000
vn -1.000000 0.000000 0.000000
vn -1.000000 0.000000 0.000000
vn -1.000000 0.000000 0.000000
vn 0.000000 1.000000 0.000000
vn 0.000000 1.000000 0.000000
vn 0.000000 1.000000 0.000000
vn 0.000000 1.000000 0.000000
vn 1.000000 0.000000 0.000000
vn 1.000000 0.000000 0.000000
vn 1.000000 0.000000 0.000000
vn 1.000000 0.000000 0.000000
vn 0.000000 0.000000 -1.000000
vn 0.000000 0.000000 -1.000000
vn 0.000000 0.000000 -1.000000
vn 0.000000 0.000000 -1.000000
vn 0.000000 0.000000 1.000000
vn 0.000000 0.000000 1.000000
vn 0.000000 0.000000 1.000000
vn 0.000000 0.000000 1.000000
vn 0.000000 -1.000000 0.000000
vn 0.000000 -1.000000 0.000000
vn 0.000000 -1.000000 0.000000
vn 0.000000 -1.000000 0.000000
vn 1.000000 0.000000 0.000000
vn 1.000000 0.000000 0.000000
vn 1.000000 0.000000 0.000000
vn 1.000000 0.000000 0.000000
vn 0.000000 1.000000 0.000000
vn 0.000000 1.000000 0.000000
vn 0.000000 1.000000 0.000000
vn 0.000000 1.000000 0.000000
vn -1.000000 0.000000 0.000000
vn -1.000000 0.000000 0.000000
vn -1.000000 0.000000 0.000000
vn -1.000000 0.000000 0.000000
vn 0.000000 0.000000 1.000000
vn 0.000000 0.000000 1.000000
vn 0.000000 0.000000 1.000000
vn 0.000000 0.000000 1.000000
vn 0.000000 0.000000 -1.000000
vn 0.000000 0.000000 -1.000000
vn 0.000000 0.000000 -1.000000
vn 0.000000 0.000000 -1.000000
vn 0.000000 -1.000000 0.000000
vn 0.000000 -1.000000 0.000000
vn 0.000000 -1.000000 0.000000
vn 0.000000 -1.000000 0.000000
vn -1.000000 0.000000 0.000000
vn -1.000000 0.000000 0.000000
vn -1.000000 0.000000 0.000000
vn -1.000000 0.000000 0.000000
vn 0.000000 1.000000 0.000000
vn 0.000000 1.000000 0.000000
vn 0.000000 1.000000 0.000000
vn 0.000000 1.000000 0.000000
vn 1.000000 0.000000 0.000000
vn 1.000000 0.000000 0.000000
vn 1.000000 0.000000 0.000000
vn 1.000000 0.000000 0.000000
vn 0.000000 0.000000 -1.000000
vn 0.000000 0.000000 -1.000000
vn 0.000000 0.000000 -1.000000
vn 0.000000 0.000000 -1.000000
vn 0.000000 0.000000 -1.000000
vn -0.000000 0.000000 1.000000
vn -0.000000 0.000000 1.000000
vn -0.000000 0.000000 1.000000
vn -0.000000 0.000000 1.000000
vn 0.000000 -0.999963 0.008638
vn 0.000000 -0.999963 0.008638
vn 0.000000 -0.999963 0.008638
vn 0.000000 -0.999963 0.008638
vn 0.000000 -0.999963 0.008638
vn 1.000000 0.000000 0.000000
vn 1.000000 0.000000 0.000000
vn 1.000000 0.000000 0.000000
vn 1.000000 0.000000 0.000000
vn -0.126065 0.931905 0.340091
vn -0.126065 0.931905 0.340091
vn -0.126065 0.931905 0.340091
vn -1.000000 0.000000 0.000000
vn -1.000000 0.000000 0.000000
vn -1.000000 0.000000 0.000000
vn -1.000000 0.000000 0.000000
vn -1.000000 0.000000 0.000000
vn -1.000000 0.000000 0.000000
vn -1.000000 0.000000 0.000000
vn 0.012282 0.999182 0.038534
vn 0.012282 0.999182 0.038534
vn 0.012282 0.999182 0.038534
vn 0.012282 0.999182 0.038534
vn 0.000000 0.000000 1.000000
vn 0.000000 0.000000 1.000000
vn 0.000000 0.000000 1.000000
vn 0.000000 0.000000 1.000000
vn -0.007418 0.999474 0.031561
vn -0.007418 0.999474 0.031561
vn -0.007418 0.999474 0.031561
vn -0.007418 0.999474 0.031561
vn -0.007418 0.999474 0.031561
vn 0.009700 0.999934 0.006194
vn 0.009700 0.999934 0.006194
vn 0.009700 0.999934 0.006194
vn 0.009700 0.999934 0.006194
vn -0.071303 0.937008 -0.341953
vn -0.071303 0.937008 -0.341953
vn -0.071303 0.937008 -0.341953
s off
g polySurface160
usemtl lambert8SG
f 1/1/1 2/2/2 3/3/3 4/4/4
f 5/5/5 6/6/6 7/7/7 8/8/8
f 5/9/9 8/10/10 3/11/11 2/12/12
f 6/13/13 5/14/14 2/15/15 1/16/16
f 7/17/17 6/18/18 1/19/19 4/20/20
f 8/21/21 7/22/22 4/23/23 3/24/24
f 9/25/25 10/26/26 11/27/27 12/28/28
f 13/29/29 14/30/30 15/31/31 16/32/32
f 13/33/33 16/34/34 11/35/35 10/36/36
f 14/37/37 13/38/38 10/39/39 9/40/40
f 15/41/41 14/42/42 9/43/43 12/44/44
f 16/45/45 15/46/46 12/47/47 11/48/48
f 17/49/49 18/50/50 19/51/51 20/52/52
f 21/53/53 22/54/54 23/55/55 24/56/56
f 21/57/57 24/58/58 19/59/59 18/60/60
f 22/61/61 21/62/62 18/63/63 17/64/64
f 23/65/65 22/66/66 17/67/67 20/68/68
f 24/69/69 23/70/70 20/71/71 19/72/72
f 25/73/73 26/74/74 27/75/75 28/76/76
f 29/77/77 30/78/78 31/79/79 32/80/80
f 29/81/81 32/82/82 27/83/83 26/84/84
f 30/85/85 29/86/86 26/87/87 25/88/88
f 31/89/89 30/90/90 25/91/91 28/92/92
f 32/93/93 31/94/94 28/95/95 27/96/96
f 33/97/97 34/98/98 35/99/99 36/100/100
f 37/101/101 38/102/102 39/103/103 40/104/104
f 37/105/105 40/106/106 35/107/107 34/108/108
f 38/109/109 37/110/110 34/111/111 33/112/112
f 39/113/113 38/114/114 33/115/115 36/116/116
f 40/117/117 39/118/118 36/119/119 35/120/120
f 41/121/121 42/122/122 43/123/123 44/124/124 50/125/125
f 51/126/126 49/127/127 47/128/128 48/129/129
f 45/130/130 51/131/131 48/132/132 43/133/133 42/134/134
f 46/135/135 45/136/136 42/137/137 41/138/138
f 55/139/139 54/140/140 52/141/141
f 48/142/142 47/143/143 53/144/144 55/145/145 52/146/146 44/147/147 43/148/148
f 49/149/149 46/150/150 41/151/151 50/152/152
f 45/153/153 46/154/154 49/127/155 51/126/156
f 52/141/157 54/140/158 49/149/159 50/152/160 44/155/161
f 47/156/162 49/149/163 54/140/164 53/157/165
f 53/157/166 54/140/167 55/139/168
f 56/158/169 57/159/170 58/160/171 59/161/172
f 60/162/173 61/163/174 62/164/175 63/165/176
f 60/166/177 63/167/178 58/168/179 57/169/180
f 61/170/181 60/171/182 57/172/183 56/173/184
f 62/174/185 61/175/186 56/176/187 59/177/188
f 63/178/189 62/179/190 59/180/191 58/181/192
f 64/182/193 65/183/194 66/184/195 67/185/196
f 68/186/197 69/187/198 70/188/199 71/189/200
f 68/190/201 71/191/202 66/192/203 65/193/204
f 69/194/205 68/195/206 65/196/207 64/197/208
f 70/198/209 69/199/210 64/200/211 67/201/212
f 71/202/213 70/203/214 67/204/215 66/205/216
f 72/206/217 73/207/218 74/208/219 75/209/220
f 76/210/221 77/211/222 78/212/223 79/213/224
f 76/214/225 79/215/226 74/216/227 73/217/228
f 77/218/229 76/219/230 73/220/231 72/221/232
f 78/222/233 77/223/234 72/224/235 75/225/236
f 79/226/237 78/227/238 75/228/239 74/229/240
f 80/230/241 81/231/242 82/232/243 83/233/244
f 84/234/245 85/235/246 86/236/247 87/237/248
f 84/238/249 87/239/250 82/240/251 81/241/252
f 85/242/253 84/243/254 81/244/255 80/245/256
f 86/246/257 85/247/258 80/248/259 83/249/260
f 87/250/261 86/251/262 83/252/263 82/253/264
f 88/254/265 89/255/266 90/256/267 91/257/268
f 92/258/269 93/259/270 94/260/271 95/261/272
f 92/262/273 95/263/274 90/264/275 89/265/276
f 93/266/277 92/267/278 89/268/279 88/269/280
f 94/270/281 93/271/282 88/272/283 91/273/284
f 95/274/285 94/275/286 91/276/287 90/277/288
f 96/278/289 97/279/290 98/280/291 99/281/292 105/282/293
f 106/283/294 104/284/295 102/285/296 103/286/297
f 100/287/298 106/288/299 103/289/300 98/290/301 97/291/302
f 101/292/303 100/293/304 97/294/305 96/295/306
f 110/296/307 109/297/308 107/298/309
f 103/299/310 102/300/311 108/301/312 110/302/313 107/303/314 99/304/315 98/305/316
f 104/306/317 101/307/318 96/308/319 105/309/320
f 100/310/321 101/311/322 104/284/323 106/283/324
f 107/298/325 109/297/326 104/306/327 105/309/328 99/312/329
f 102/313/330 104/306/331 109/297/332 108/314/333
f 108/314/334 109/297/335 110/296/336
